<mxfile host="app.diagrams.net" agent="Mozilla/5.0 (Windows NT 10.0; Win64; x64) AppleWebKit/537.36 (KHTML, like Gecko) Chrome/138.0.0.0 Safari/537.36" version="28.0.7">
  <diagram name="Page-1" id="VW8s6OkqG2i_AYqq_G_P">
    <mxGraphModel dx="1864" dy="316" grid="1" gridSize="10" guides="1" tooltips="1" connect="1" arrows="1" fold="1" page="1" pageScale="1" pageWidth="1400" pageHeight="850" math="0" shadow="0">
      <root>
        <mxCell id="0" />
        <mxCell id="1" parent="0" />
        <mxCell id="__-dNfwIh98uai5d9UmT-134" style="edgeStyle=orthogonalEdgeStyle;rounded=0;orthogonalLoop=1;jettySize=auto;html=1;exitX=0.234;exitY=0.924;exitDx=0;exitDy=0;entryX=0;entryY=0.5;entryDx=0;entryDy=0;strokeWidth=2;exitPerimeter=0;" parent="1" source="__-dNfwIh98uai5d9UmT-112" target="__-dNfwIh98uai5d9UmT-132" edge="1">
          <mxGeometry relative="1" as="geometry">
            <Array as="points">
              <mxPoint x="1340" y="1405" />
              <mxPoint x="930" y="1405" />
            </Array>
          </mxGeometry>
        </mxCell>
        <mxCell id="__-dNfwIh98uai5d9UmT-146" style="edgeStyle=orthogonalEdgeStyle;rounded=0;orthogonalLoop=1;jettySize=auto;html=1;exitX=1;exitY=0;exitDx=0;exitDy=0;entryX=0.75;entryY=0;entryDx=0;entryDy=0;strokeWidth=2;" parent="1" source="__-dNfwIh98uai5d9UmT-112" target="__-dNfwIh98uai5d9UmT-145" edge="1">
          <mxGeometry relative="1" as="geometry" />
        </mxCell>
        <mxCell id="__-dNfwIh98uai5d9UmT-147" style="edgeStyle=orthogonalEdgeStyle;rounded=0;orthogonalLoop=1;jettySize=auto;html=1;exitX=1;exitY=0.5;exitDx=0;exitDy=0;entryX=0.5;entryY=0;entryDx=0;entryDy=0;strokeWidth=2;" parent="1" source="__-dNfwIh98uai5d9UmT-112" target="__-dNfwIh98uai5d9UmT-145" edge="1">
          <mxGeometry relative="1" as="geometry" />
        </mxCell>
        <mxCell id="__-dNfwIh98uai5d9UmT-230" style="edgeStyle=orthogonalEdgeStyle;rounded=0;orthogonalLoop=1;jettySize=auto;html=1;exitX=0.5;exitY=1;exitDx=0;exitDy=0;strokeWidth=3;" parent="1" source="__-dNfwIh98uai5d9UmT-112" target="__-dNfwIh98uai5d9UmT-117" edge="1">
          <mxGeometry relative="1" as="geometry" />
        </mxCell>
        <mxCell id="__-dNfwIh98uai5d9UmT-112" value="" style="ellipse;whiteSpace=wrap;html=1;aspect=fixed;strokeWidth=2;" parent="1" vertex="1">
          <mxGeometry x="1250" y="1035" width="400" height="400" as="geometry" />
        </mxCell>
        <mxCell id="__-dNfwIh98uai5d9UmT-114" value="" style="endArrow=none;html=1;rounded=0;exitX=0.024;exitY=0.4;exitDx=0;exitDy=0;exitPerimeter=0;entryX=0.976;entryY=0.405;entryDx=0;entryDy=0;entryPerimeter=0;strokeWidth=2;" parent="1" source="__-dNfwIh98uai5d9UmT-112" target="__-dNfwIh98uai5d9UmT-112" edge="1">
          <mxGeometry width="50" height="50" relative="1" as="geometry">
            <mxPoint x="1280" y="1203" as="sourcePoint" />
            <mxPoint x="1640" y="1203" as="targetPoint" />
          </mxGeometry>
        </mxCell>
        <mxCell id="__-dNfwIh98uai5d9UmT-116" value="&lt;b&gt;&lt;font&gt;1.0&lt;/font&gt;&lt;/b&gt;" style="text;html=1;align=center;verticalAlign=middle;whiteSpace=wrap;rounded=0;fontSize=40;strokeWidth=2;" parent="1" vertex="1">
          <mxGeometry x="1420" y="1135" width="60" height="30" as="geometry" />
        </mxCell>
        <mxCell id="__-dNfwIh98uai5d9UmT-138" style="edgeStyle=orthogonalEdgeStyle;rounded=0;orthogonalLoop=1;jettySize=auto;html=1;entryX=0;entryY=0.5;entryDx=0;entryDy=0;strokeWidth=3;exitX=0.5;exitY=1;exitDx=0;exitDy=0;" parent="1" source="__-dNfwIh98uai5d9UmT-117" target="__-dNfwIh98uai5d9UmT-136" edge="1">
          <mxGeometry relative="1" as="geometry">
            <mxPoint x="1450" y="2022.5" as="sourcePoint" />
            <Array as="points" />
          </mxGeometry>
        </mxCell>
        <mxCell id="__-dNfwIh98uai5d9UmT-149" style="edgeStyle=orthogonalEdgeStyle;rounded=0;orthogonalLoop=1;jettySize=auto;html=1;exitX=0;exitY=0.5;exitDx=0;exitDy=0;entryX=0.75;entryY=0;entryDx=0;entryDy=0;strokeWidth=3;" parent="1" source="__-dNfwIh98uai5d9UmT-117" target="__-dNfwIh98uai5d9UmT-120" edge="1">
          <mxGeometry relative="1" as="geometry" />
        </mxCell>
        <mxCell id="__-dNfwIh98uai5d9UmT-117" value="" style="ellipse;whiteSpace=wrap;html=1;aspect=fixed;strokeWidth=2;" parent="1" vertex="1">
          <mxGeometry x="1250" y="1585" width="400" height="400" as="geometry" />
        </mxCell>
        <mxCell id="__-dNfwIh98uai5d9UmT-118" value="" style="endArrow=none;html=1;rounded=0;exitX=0.024;exitY=0.4;exitDx=0;exitDy=0;exitPerimeter=0;entryX=0.976;entryY=0.405;entryDx=0;entryDy=0;entryPerimeter=0;strokeWidth=2;" parent="1" source="__-dNfwIh98uai5d9UmT-117" target="__-dNfwIh98uai5d9UmT-117" edge="1">
          <mxGeometry width="50" height="50" relative="1" as="geometry">
            <mxPoint x="1280" y="1753" as="sourcePoint" />
            <mxPoint x="1640" y="1753" as="targetPoint" />
          </mxGeometry>
        </mxCell>
        <mxCell id="__-dNfwIh98uai5d9UmT-119" value="&lt;b&gt;&lt;font&gt;2.0&lt;/font&gt;&lt;/b&gt;" style="text;html=1;align=center;verticalAlign=middle;whiteSpace=wrap;rounded=0;fontSize=40;strokeWidth=2;" parent="1" vertex="1">
          <mxGeometry x="1420" y="1685" width="60" height="30" as="geometry" />
        </mxCell>
        <mxCell id="__-dNfwIh98uai5d9UmT-143" style="edgeStyle=orthogonalEdgeStyle;rounded=0;orthogonalLoop=1;jettySize=auto;html=1;exitX=0.25;exitY=0;exitDx=0;exitDy=0;entryX=0;entryY=0;entryDx=0;entryDy=0;strokeWidth=2;" parent="1" source="__-dNfwIh98uai5d9UmT-120" target="__-dNfwIh98uai5d9UmT-112" edge="1">
          <mxGeometry relative="1" as="geometry">
            <Array as="points">
              <mxPoint x="462" y="1094" />
            </Array>
          </mxGeometry>
        </mxCell>
        <mxCell id="__-dNfwIh98uai5d9UmT-144" style="edgeStyle=orthogonalEdgeStyle;rounded=0;orthogonalLoop=1;jettySize=auto;html=1;exitX=0.5;exitY=0;exitDx=0;exitDy=0;entryX=0;entryY=0.5;entryDx=0;entryDy=0;strokeWidth=2;" parent="1" source="__-dNfwIh98uai5d9UmT-120" target="__-dNfwIh98uai5d9UmT-112" edge="1">
          <mxGeometry relative="1" as="geometry" />
        </mxCell>
        <mxCell id="__-dNfwIh98uai5d9UmT-150" style="edgeStyle=orthogonalEdgeStyle;rounded=0;orthogonalLoop=1;jettySize=auto;html=1;exitX=0.75;exitY=1;exitDx=0;exitDy=0;entryX=0;entryY=0.5;entryDx=0;entryDy=0;strokeWidth=2;" parent="1" source="__-dNfwIh98uai5d9UmT-120" target="__-dNfwIh98uai5d9UmT-121" edge="1">
          <mxGeometry relative="1" as="geometry" />
        </mxCell>
        <mxCell id="__-dNfwIh98uai5d9UmT-120" value="&lt;b&gt;&lt;font style=&quot;font-size: 50px;&quot;&gt;CUSTOMER&lt;/font&gt;&lt;/b&gt;" style="rounded=0;whiteSpace=wrap;html=1;strokeWidth=2;" parent="1" vertex="1">
          <mxGeometry x="390" y="2102.5" width="330" height="60" as="geometry" />
        </mxCell>
        <mxCell id="__-dNfwIh98uai5d9UmT-151" style="edgeStyle=orthogonalEdgeStyle;rounded=0;orthogonalLoop=1;jettySize=auto;html=1;exitX=1;exitY=0.5;exitDx=0;exitDy=0;entryX=0.25;entryY=1;entryDx=0;entryDy=0;strokeWidth=2;" parent="1" source="__-dNfwIh98uai5d9UmT-121" target="__-dNfwIh98uai5d9UmT-145" edge="1">
          <mxGeometry relative="1" as="geometry" />
        </mxCell>
        <mxCell id="__-dNfwIh98uai5d9UmT-177" style="edgeStyle=orthogonalEdgeStyle;rounded=0;orthogonalLoop=1;jettySize=auto;html=1;exitX=0.5;exitY=1;exitDx=0;exitDy=0;entryX=0;entryY=0.5;entryDx=0;entryDy=0;strokeWidth=2;" parent="1" source="__-dNfwIh98uai5d9UmT-121" target="__-dNfwIh98uai5d9UmT-175" edge="1">
          <mxGeometry relative="1" as="geometry" />
        </mxCell>
        <mxCell id="__-dNfwIh98uai5d9UmT-121" value="" style="ellipse;whiteSpace=wrap;html=1;aspect=fixed;strokeWidth=2;" parent="1" vertex="1">
          <mxGeometry x="1241" y="2335" width="420" height="420" as="geometry" />
        </mxCell>
        <mxCell id="__-dNfwIh98uai5d9UmT-122" value="" style="endArrow=none;html=1;rounded=0;exitX=0.024;exitY=0.4;exitDx=0;exitDy=0;exitPerimeter=0;entryX=0.976;entryY=0.405;entryDx=0;entryDy=0;entryPerimeter=0;strokeWidth=2;" parent="1" source="__-dNfwIh98uai5d9UmT-121" target="__-dNfwIh98uai5d9UmT-121" edge="1">
          <mxGeometry width="50" height="50" relative="1" as="geometry">
            <mxPoint x="1271" y="2503" as="sourcePoint" />
            <mxPoint x="1631" y="2503" as="targetPoint" />
          </mxGeometry>
        </mxCell>
        <mxCell id="__-dNfwIh98uai5d9UmT-123" value="&lt;b&gt;&lt;font&gt;3.0&lt;/font&gt;&lt;/b&gt;" style="text;html=1;align=center;verticalAlign=middle;whiteSpace=wrap;rounded=0;fontSize=40;strokeWidth=2;" parent="1" vertex="1">
          <mxGeometry x="1421" y="2440" width="60" height="30" as="geometry" />
        </mxCell>
        <mxCell id="__-dNfwIh98uai5d9UmT-156" style="edgeStyle=orthogonalEdgeStyle;rounded=0;orthogonalLoop=1;jettySize=auto;html=1;exitX=0;exitY=0.5;exitDx=0;exitDy=0;entryX=0.5;entryY=1;entryDx=0;entryDy=0;strokeWidth=2;" parent="1" source="__-dNfwIh98uai5d9UmT-124" target="__-dNfwIh98uai5d9UmT-120" edge="1">
          <mxGeometry relative="1" as="geometry" />
        </mxCell>
        <mxCell id="__-dNfwIh98uai5d9UmT-157" style="edgeStyle=orthogonalEdgeStyle;rounded=0;orthogonalLoop=1;jettySize=auto;html=1;entryX=0.75;entryY=1;entryDx=0;entryDy=0;strokeWidth=2;" parent="1" source="__-dNfwIh98uai5d9UmT-124" target="__-dNfwIh98uai5d9UmT-145" edge="1">
          <mxGeometry relative="1" as="geometry" />
        </mxCell>
        <mxCell id="__-dNfwIh98uai5d9UmT-124" value="" style="ellipse;whiteSpace=wrap;html=1;aspect=fixed;strokeWidth=2;" parent="1" vertex="1">
          <mxGeometry x="1251" y="3075" width="400" height="400" as="geometry" />
        </mxCell>
        <mxCell id="__-dNfwIh98uai5d9UmT-125" value="" style="endArrow=none;html=1;rounded=0;exitX=0.024;exitY=0.4;exitDx=0;exitDy=0;exitPerimeter=0;entryX=0.976;entryY=0.405;entryDx=0;entryDy=0;entryPerimeter=0;strokeWidth=2;" parent="1" source="__-dNfwIh98uai5d9UmT-124" target="__-dNfwIh98uai5d9UmT-124" edge="1">
          <mxGeometry width="50" height="50" relative="1" as="geometry">
            <mxPoint x="1281" y="3243" as="sourcePoint" />
            <mxPoint x="1641" y="3243" as="targetPoint" />
          </mxGeometry>
        </mxCell>
        <mxCell id="__-dNfwIh98uai5d9UmT-126" value="&lt;b&gt;&lt;font&gt;4.0&lt;/font&gt;&lt;/b&gt;" style="text;html=1;align=center;verticalAlign=middle;whiteSpace=wrap;rounded=0;fontSize=40;strokeWidth=2;" parent="1" vertex="1">
          <mxGeometry x="1422" y="3175" width="60" height="30" as="geometry" />
        </mxCell>
        <mxCell id="__-dNfwIh98uai5d9UmT-127" value="&lt;b&gt;&lt;font style=&quot;font-size: 40px;&quot;&gt;Manage Customer Information&lt;/font&gt;&lt;/b&gt;" style="text;html=1;align=center;verticalAlign=middle;whiteSpace=wrap;rounded=0;strokeWidth=2;" parent="1" vertex="1">
          <mxGeometry x="1350" y="1225" width="200" height="160" as="geometry" />
        </mxCell>
        <mxCell id="__-dNfwIh98uai5d9UmT-128" value="&lt;b&gt;&lt;font&gt;Manage Accommodation Catalogue&lt;/font&gt;&lt;/b&gt;" style="text;html=1;align=center;verticalAlign=middle;whiteSpace=wrap;rounded=0;strokeWidth=2;fontSize=40;" parent="1" vertex="1">
          <mxGeometry x="1350" y="1775" width="200" height="160" as="geometry" />
        </mxCell>
        <mxCell id="__-dNfwIh98uai5d9UmT-129" value="&lt;b&gt;&lt;font&gt;Create Reservation&lt;/font&gt;&lt;/b&gt;" style="text;html=1;align=center;verticalAlign=middle;whiteSpace=wrap;rounded=0;strokeWidth=2;fontSize=40;" parent="1" vertex="1">
          <mxGeometry x="1351" y="2535" width="200" height="160" as="geometry" />
        </mxCell>
        <mxCell id="__-dNfwIh98uai5d9UmT-130" value="&lt;b&gt;&lt;font&gt;Manage Transactions&lt;/font&gt;&lt;/b&gt;" style="text;html=1;align=center;verticalAlign=middle;whiteSpace=wrap;rounded=0;strokeWidth=2;fontSize=40;" parent="1" vertex="1">
          <mxGeometry x="1352" y="3255" width="200" height="160" as="geometry" />
        </mxCell>
        <mxCell id="__-dNfwIh98uai5d9UmT-131" value="&lt;font style=&quot;font-size: 40px;&quot;&gt;D1&lt;/font&gt;" style="shape=partialRectangle;whiteSpace=wrap;html=1;top=0;bottom=0;fillColor=none;fontStyle=1;strokeWidth=2;" parent="1" vertex="1">
          <mxGeometry x="689.5" y="1425" width="70" height="60" as="geometry" />
        </mxCell>
        <mxCell id="__-dNfwIh98uai5d9UmT-132" value="" style="shape=partialRectangle;whiteSpace=wrap;html=1;top=0;bottom=0;fillColor=none;rotation=90;fontStyle=1;strokeWidth=2;" parent="1" vertex="1">
          <mxGeometry x="900.5" y="1215" width="60" height="480" as="geometry" />
        </mxCell>
        <mxCell id="__-dNfwIh98uai5d9UmT-133" value="&lt;font style=&quot;font-size: 40px;&quot;&gt;Customer Database&lt;/font&gt;" style="text;html=1;align=center;verticalAlign=middle;whiteSpace=wrap;rounded=0;strokeWidth=2;" parent="1" vertex="1">
          <mxGeometry x="775.5" y="1440" width="383" height="30" as="geometry" />
        </mxCell>
        <mxCell id="__-dNfwIh98uai5d9UmT-135" value="&lt;font style=&quot;font-size: 40px;&quot;&gt;D2&lt;/font&gt;" style="shape=partialRectangle;whiteSpace=wrap;html=1;top=0;bottom=0;fillColor=none;fontStyle=1;strokeWidth=2;" parent="1" vertex="1">
          <mxGeometry x="1150.4" y="2133.75" width="70" height="60" as="geometry" />
        </mxCell>
        <mxCell id="__-dNfwIh98uai5d9UmT-232" style="edgeStyle=orthogonalEdgeStyle;rounded=0;orthogonalLoop=1;jettySize=auto;html=1;exitX=1;exitY=0.5;exitDx=0;exitDy=0;entryX=0.5;entryY=0;entryDx=0;entryDy=0;strokeWidth=3;" parent="1" source="__-dNfwIh98uai5d9UmT-136" target="__-dNfwIh98uai5d9UmT-121" edge="1">
          <mxGeometry relative="1" as="geometry" />
        </mxCell>
        <mxCell id="__-dNfwIh98uai5d9UmT-136" value="" style="shape=partialRectangle;whiteSpace=wrap;html=1;top=0;bottom=0;fillColor=none;rotation=90;fontStyle=1;strokeWidth=2;" parent="1" vertex="1">
          <mxGeometry x="1420.65" y="1865" width="60" height="597.5" as="geometry" />
        </mxCell>
        <mxCell id="__-dNfwIh98uai5d9UmT-137" value="&lt;font style=&quot;font-size: 40px;&quot;&gt;Accommodation Catalogue&lt;/font&gt;" style="text;html=1;align=center;verticalAlign=middle;whiteSpace=wrap;rounded=0;strokeWidth=2;" parent="1" vertex="1">
          <mxGeometry x="1220.4" y="2148.75" width="518.5" height="30" as="geometry" />
        </mxCell>
        <mxCell id="__-dNfwIh98uai5d9UmT-139" value="&lt;font style=&quot;font-size: 40px;&quot;&gt;D4&lt;/font&gt;" style="shape=partialRectangle;whiteSpace=wrap;html=1;top=0;bottom=0;fillColor=none;fontStyle=1;strokeWidth=2;" parent="1" vertex="1">
          <mxGeometry x="1167" y="3610" width="70" height="60" as="geometry" />
        </mxCell>
        <mxCell id="__-dNfwIh98uai5d9UmT-140" value="" style="shape=partialRectangle;whiteSpace=wrap;html=1;top=0;bottom=0;fillColor=none;rotation=90;fontStyle=1;strokeWidth=2;" parent="1" vertex="1">
          <mxGeometry x="1399" y="3380" width="60" height="520" as="geometry" />
        </mxCell>
        <mxCell id="__-dNfwIh98uai5d9UmT-141" value="&lt;font style=&quot;font-size: 40px;&quot;&gt;Transactions Database&lt;/font&gt;" style="text;html=1;align=center;verticalAlign=middle;whiteSpace=wrap;rounded=0;strokeWidth=2;" parent="1" vertex="1">
          <mxGeometry x="1247.5" y="3625" width="424.5" height="30" as="geometry" />
        </mxCell>
        <mxCell id="__-dNfwIh98uai5d9UmT-142" style="edgeStyle=orthogonalEdgeStyle;rounded=0;orthogonalLoop=1;jettySize=auto;html=1;exitX=0.5;exitY=1;exitDx=0;exitDy=0;entryX=0.076;entryY=0.456;entryDx=0;entryDy=0;entryPerimeter=0;strokeWidth=2;" parent="1" source="__-dNfwIh98uai5d9UmT-124" target="__-dNfwIh98uai5d9UmT-140" edge="1">
          <mxGeometry relative="1" as="geometry" />
        </mxCell>
        <mxCell id="__-dNfwIh98uai5d9UmT-148" style="edgeStyle=orthogonalEdgeStyle;rounded=0;orthogonalLoop=1;jettySize=auto;html=1;exitX=0.25;exitY=0;exitDx=0;exitDy=0;entryX=1;entryY=0.5;entryDx=0;entryDy=0;strokeWidth=3;" parent="1" source="__-dNfwIh98uai5d9UmT-145" target="__-dNfwIh98uai5d9UmT-117" edge="1">
          <mxGeometry relative="1" as="geometry" />
        </mxCell>
        <mxCell id="__-dNfwIh98uai5d9UmT-145" value="&lt;span style=&quot;font-size: 50px;&quot;&gt;&lt;b&gt;RECEPTIONIST&lt;/b&gt;&lt;/span&gt;" style="rounded=0;whiteSpace=wrap;html=1;strokeWidth=2;" parent="1" vertex="1">
          <mxGeometry x="2090" y="2102.5" width="420" height="60" as="geometry" />
        </mxCell>
        <mxCell id="__-dNfwIh98uai5d9UmT-158" value="&lt;font style=&quot;font-size: 40px;&quot;&gt;Booking Inquiry Details&lt;/font&gt;" style="text;html=1;align=center;verticalAlign=middle;resizable=0;points=[];autosize=1;strokeColor=none;fillColor=none;" parent="1" vertex="1">
          <mxGeometry x="810" y="1020" width="430" height="60" as="geometry" />
        </mxCell>
        <mxCell id="__-dNfwIh98uai5d9UmT-159" value="&lt;font style=&quot;font-size: 40px;&quot;&gt;Customer Information&lt;/font&gt;" style="edgeLabel;html=1;align=center;verticalAlign=middle;resizable=0;points=[];" parent="1" vertex="1" connectable="0">
          <mxGeometry x="1000" y="1195" as="geometry" />
        </mxCell>
        <mxCell id="__-dNfwIh98uai5d9UmT-160" value="&lt;font style=&quot;font-size: 40px;&quot;&gt;Processed Booking Inquiry Details&lt;/font&gt;" style="edgeLabel;html=1;align=center;verticalAlign=middle;resizable=0;points=[];fontSize=30;" parent="1" vertex="1" connectable="0">
          <mxGeometry x="2020" y="1050" as="geometry" />
        </mxCell>
        <mxCell id="__-dNfwIh98uai5d9UmT-161" value="&lt;font style=&quot;font-size: 40px;&quot;&gt;Processed Customer Information&lt;/font&gt;" style="edgeLabel;html=1;align=center;verticalAlign=middle;resizable=0;points=[];fontSize=30;" parent="1" vertex="1" connectable="0">
          <mxGeometry x="1990" y="1160" as="geometry">
            <mxPoint x="-14" y="34" as="offset" />
          </mxGeometry>
        </mxCell>
        <mxCell id="__-dNfwIh98uai5d9UmT-162" value="&lt;font style=&quot;font-size: 40px;&quot;&gt;Accommodation Information&lt;/font&gt;" style="edgeLabel;html=1;align=center;verticalAlign=middle;resizable=0;points=[];" parent="1" vertex="1" connectable="0">
          <mxGeometry x="1940" y="1755" as="geometry" />
        </mxCell>
        <mxCell id="__-dNfwIh98uai5d9UmT-163" value="&lt;font style=&quot;font-size: 40px;&quot;&gt;Accommodation List&lt;/font&gt;" style="edgeLabel;html=1;align=center;verticalAlign=middle;resizable=0;points=[];" parent="1" vertex="1" connectable="0">
          <mxGeometry x="990" y="1755" as="geometry" />
        </mxCell>
        <mxCell id="__-dNfwIh98uai5d9UmT-164" value="&lt;font&gt;Chosen Reservation&lt;/font&gt;" style="edgeLabel;html=1;align=center;verticalAlign=middle;resizable=0;points=[];fontSize=40;" parent="1" vertex="1" connectable="0">
          <mxGeometry x="970" y="2466.5" as="geometry">
            <mxPoint x="-5" y="43" as="offset" />
          </mxGeometry>
        </mxCell>
        <mxCell id="__-dNfwIh98uai5d9UmT-165" value="&lt;font&gt;Reservation Confirmation&lt;/font&gt;" style="edgeLabel;html=1;align=center;verticalAlign=middle;resizable=0;points=[];fontSize=40;" parent="1" vertex="1" connectable="0">
          <mxGeometry x="1920" y="2515" as="geometry" />
        </mxCell>
        <mxCell id="__-dNfwIh98uai5d9UmT-166" value="&lt;font&gt;Transaction Details&lt;/font&gt;" style="text;html=1;align=center;verticalAlign=middle;resizable=0;points=[];autosize=1;strokeColor=none;fillColor=none;fontSize=40;" parent="1" vertex="1">
          <mxGeometry x="745" y="3206" width="360" height="60" as="geometry" />
        </mxCell>
        <mxCell id="__-dNfwIh98uai5d9UmT-167" value="Transaction Details" style="text;html=1;align=center;verticalAlign=middle;resizable=0;points=[];autosize=1;strokeColor=none;fillColor=none;fontSize=40;" parent="1" vertex="1">
          <mxGeometry x="1792" y="3206" width="360" height="60" as="geometry" />
        </mxCell>
        <mxCell id="__-dNfwIh98uai5d9UmT-174" value="&lt;font style=&quot;font-size: 40px;&quot;&gt;D3&lt;/font&gt;" style="shape=partialRectangle;whiteSpace=wrap;html=1;top=0;bottom=0;fillColor=none;fontStyle=1;strokeWidth=2;" parent="1" vertex="1">
          <mxGeometry x="1189.5" y="2885" width="70" height="60" as="geometry" />
        </mxCell>
        <mxCell id="__-dNfwIh98uai5d9UmT-178" style="edgeStyle=orthogonalEdgeStyle;rounded=0;orthogonalLoop=1;jettySize=auto;html=1;strokeWidth=2;" parent="1" source="__-dNfwIh98uai5d9UmT-175" target="__-dNfwIh98uai5d9UmT-124" edge="1">
          <mxGeometry relative="1" as="geometry" />
        </mxCell>
        <mxCell id="__-dNfwIh98uai5d9UmT-175" value="" style="shape=partialRectangle;whiteSpace=wrap;html=1;top=0;bottom=0;fillColor=none;rotation=90;fontStyle=1;strokeWidth=2;" parent="1" vertex="1">
          <mxGeometry x="1421" y="2655" width="60" height="520" as="geometry" />
        </mxCell>
        <mxCell id="__-dNfwIh98uai5d9UmT-176" value="&lt;font style=&quot;font-size: 40px;&quot;&gt;Reservation Record&lt;/font&gt;" style="text;html=1;align=center;verticalAlign=middle;whiteSpace=wrap;rounded=0;strokeWidth=2;" parent="1" vertex="1">
          <mxGeometry x="1270" y="2900" width="424.5" height="30" as="geometry" />
        </mxCell>
        <mxCell id="__-dNfwIh98uai5d9UmT-227" value="&lt;span style=&quot;color: rgb(0, 0, 0); font-family: Helvetica; font-style: normal; font-variant-ligatures: normal; font-variant-caps: normal; font-weight: 400; letter-spacing: normal; orphans: 2; text-indent: 0px; text-transform: none; widows: 2; word-spacing: 0px; -webkit-text-stroke-width: 0px; white-space: nowrap; background-color: rgb(255, 255, 255); text-decoration-thickness: initial; text-decoration-style: initial; text-decoration-color: initial; float: none; display: inline !important;&quot;&gt;&lt;font&gt;Validated&amp;nbsp;&lt;/font&gt;&lt;/span&gt;&lt;span style=&quot;background-color: light-dark(rgb(255, 255, 255), rgb(18, 18, 18)); color: light-dark(rgb(0, 0, 0), rgb(237, 237, 237)); text-wrap-mode: nowrap;&quot;&gt;Customer Information&lt;/span&gt;" style="text;whiteSpace=wrap;html=1;align=center;fontSize=40;" parent="1" vertex="1">
          <mxGeometry x="707" y="1345" width="539.5" height="50" as="geometry" />
        </mxCell>
        <mxCell id="__-dNfwIh98uai5d9UmT-229" value="&lt;span style=&quot;text-wrap-mode: nowrap; background-color: rgb(255, 255, 255);&quot;&gt;Collected&amp;nbsp;&lt;/span&gt;&lt;span style=&quot;background-color: light-dark(rgb(255, 255, 255), rgb(18, 18, 18)); text-wrap-mode: nowrap; color: light-dark(rgb(0, 0, 0), rgb(255, 255, 255));&quot;&gt;Booking Details&lt;/span&gt;" style="text;whiteSpace=wrap;html=1;align=center;fontSize=40;" parent="1" vertex="1">
          <mxGeometry x="1540" y="1485" width="300" height="50" as="geometry" />
        </mxCell>
        <mxCell id="__-dNfwIh98uai5d9UmT-231" value="&lt;font style=&quot;font-size: 35px;&quot;&gt;&lt;font style=&quot;&quot;&gt;Collected&amp;nbsp;&lt;/font&gt;&lt;/font&gt;&lt;div&gt;&lt;font style=&quot;font-size: 35px;&quot;&gt;&lt;span style=&quot;background-color: light-dark(#ffffff, var(--ge-dark-color, #121212)); color: light-dark(rgb(0, 0, 0), rgb(255, 255, 255));&quot;&gt;Accommodation Information&lt;/span&gt;&lt;/font&gt;&lt;/div&gt;" style="edgeLabel;html=1;align=center;verticalAlign=middle;resizable=0;points=[];" parent="1" vertex="1" connectable="0">
          <mxGeometry x="1690" y="2045" as="geometry" />
        </mxCell>
        <mxCell id="__-dNfwIh98uai5d9UmT-233" value="&lt;font style=&quot;font-size: 40px;&quot;&gt;Accommodation Details&lt;/font&gt;" style="text;html=1;align=center;verticalAlign=middle;whiteSpace=wrap;rounded=0;" parent="1" vertex="1">
          <mxGeometry x="1458" y="2255" width="450" height="30" as="geometry" />
        </mxCell>
        <mxCell id="__-dNfwIh98uai5d9UmT-235" value="&lt;font style=&quot;font-size: 40px;&quot;&gt;Confirmed Reservation&lt;/font&gt;" style="text;html=1;align=center;verticalAlign=middle;whiteSpace=wrap;rounded=0;" parent="1" vertex="1">
          <mxGeometry x="1455" y="2820" width="470" height="30" as="geometry" />
        </mxCell>
        <mxCell id="__-dNfwIh98uai5d9UmT-236" value="&lt;font style=&quot;font-size: 40px;&quot;&gt;Invoice Details&lt;/font&gt;" style="text;html=1;align=center;verticalAlign=middle;whiteSpace=wrap;rounded=0;" parent="1" vertex="1">
          <mxGeometry x="1450" y="3000" width="320" height="30" as="geometry" />
        </mxCell>
        <mxCell id="__-dNfwIh98uai5d9UmT-239" value="Transaction Details" style="text;html=1;align=center;verticalAlign=middle;resizable=0;points=[];autosize=1;strokeColor=none;fillColor=none;fontSize=40;" parent="1" vertex="1">
          <mxGeometry x="1480" y="3500" width="360" height="60" as="geometry" />
        </mxCell>
      </root>
    </mxGraphModel>
  </diagram>
</mxfile>
